<svg width="19" height="19" viewBox="0 0 19 19" fill="none" xmlns="http://www.w3.org/2000/svg">
<g id="gg:search">
<g id="Group">
<path id="Vector" d="M12.9918 12.1333L16.8692 16.0107C16.871 16.0403 16.8851 16.0607 16.8932 16.0702C16.9019 16.0805 16.9109 16.087 16.9158 16.0902C16.9212 16.0938 16.9262 16.0964 16.9298 16.0981C16.9368 16.1015 16.9435 16.1039 16.9482 16.1055C16.9506 16.1063 16.953 16.107 16.9553 16.1077C16.9575 16.1089 16.9597 16.11 16.9619 16.1112C16.9664 16.1134 16.9728 16.1164 16.9802 16.119C16.9839 16.1203 16.9893 16.122 16.9957 16.1233C17.0014 16.1245 17.0123 16.1263 17.0258 16.1252C17.0378 16.1242 17.0609 16.1201 17.0825 16.1021C17.1031 16.1028 17.1266 16.1036 17.1524 16.1045C17.2467 16.1078 17.3719 16.1121 17.5007 16.1149C17.6136 16.1174 17.7275 16.1187 17.8198 16.1168C17.8612 16.116 17.8993 16.1144 17.9316 16.112C17.9359 16.1144 17.9402 16.1165 17.9443 16.1181C17.9482 16.1202 17.9522 16.1221 17.9565 16.1237C17.986 16.135 18.0117 16.1295 18.024 16.1255C18.0369 16.1214 18.0463 16.1156 18.0511 16.1123C18.0565 16.1086 18.0608 16.105 18.0638 16.1024C18.0696 16.0972 18.0744 16.092 18.0777 16.0881C18.0793 16.0863 18.0809 16.0843 18.0824 16.0824C18.0843 16.0809 18.0862 16.0793 18.0881 16.0777C18.0919 16.0744 18.0971 16.0696 18.1024 16.0638C18.105 16.0608 18.1086 16.0565 18.1123 16.0511C18.1155 16.0463 18.1213 16.0369 18.1255 16.024C18.1294 16.0117 18.135 15.986 18.1237 15.9565C18.122 15.9523 18.1202 15.9483 18.1181 15.9444C18.1164 15.9403 18.1144 15.936 18.1119 15.9317C18.1144 15.8994 18.1159 15.8612 18.1168 15.8198C18.1187 15.7275 18.1174 15.6136 18.1149 15.5008C18.112 15.3719 18.1077 15.2468 18.1044 15.1524C18.1036 15.1266 18.1027 15.1031 18.1021 15.0825C18.12 15.0609 18.1241 15.0378 18.1251 15.0258C18.1262 15.0124 18.1244 15.0015 18.1233 14.9958C18.122 14.9893 18.1203 14.984 18.119 14.9803C18.1164 14.9729 18.1134 14.9665 18.1111 14.962C18.11 14.9598 18.1088 14.9576 18.1077 14.9554C18.107 14.953 18.1062 14.9506 18.1055 14.9483C18.1039 14.9435 18.1015 14.9369 18.0981 14.9298C18.0964 14.9262 18.0938 14.9213 18.0902 14.9158C18.087 14.9109 18.0805 14.902 18.0702 14.8932C18.0607 14.8852 18.0403 14.871 18.0106 14.8692L14.1332 10.9918C14.2617 10.8277 14.3937 10.665 14.5255 10.5025C14.8799 10.0654 15.2329 9.6301 15.5129 9.17698C15.9152 8.52622 16.1781 7.82342 16.0995 6.9906C15.9456 5.359 15.297 4.01127 14.0661 2.92502C13.4511 2.38228 12.5947 1.86439 11.6894 1.48827C10.785 1.11246 9.82291 0.874473 8.99686 0.900045C7.34712 0.951115 6.08015 1.77941 4.92928 2.92925C3.77726 4.08004 2.95227 5.34535 2.90001 6.99683C2.87384 7.82386 3.11175 8.78559 3.48767 9.68965C3.8639 10.5945 4.38209 11.4505 4.92495 12.0661C6.01156 13.2985 7.35827 13.9465 8.99062 14.0996C9.82369 14.1777 10.5266 13.9156 11.1775 13.5138C11.6341 13.2318 12.0724 12.8759 12.5127 12.5183C12.6718 12.389 12.8312 12.2596 12.9918 12.1333ZM12.9298 4.07127C13.1391 4.27724 13.3218 4.61675 13.4849 4.98828C13.5657 5.17244 13.6404 5.36133 13.7106 5.54137C13.7224 5.57163 13.734 5.60167 13.7456 5.63141C13.8024 5.77786 13.8565 5.91707 13.9078 6.03882C13.968 6.18162 13.9944 6.26823 14.0038 6.32773C14.0123 6.38204 14.0067 6.41443 13.995 6.45177C13.9919 6.4618 13.9872 6.47497 13.9816 6.49057C13.9682 6.52823 13.9497 6.58007 13.936 6.63637C13.9149 6.72336 13.8993 6.83643 13.9 7.0004C13.9008 7.20843 13.9272 7.43882 13.9534 7.66714C13.9673 7.78865 13.9811 7.90956 13.991 8.02621C14.0204 8.37258 14.0175 8.69478 13.9075 8.96193C13.8618 9.07298 13.8144 9.19514 13.7645 9.32392C13.6803 9.54123 13.5887 9.77739 13.4854 10.0108C13.3214 10.3814 13.1373 10.7211 12.9292 10.9293C12.7212 11.1375 12.3815 11.3215 12.0108 11.4855C11.7779 11.5885 11.5425 11.6797 11.3258 11.7638C11.1963 11.8139 11.0735 11.8616 10.9619 11.9075C10.6948 12.0175 10.3726 12.0205 10.0262 11.9911C9.90947 11.9812 9.7885 11.9673 9.66695 11.9534C9.43864 11.9272 9.20828 11.9008 9.00037 11.9C8.83645 11.8993 8.72339 11.9149 8.6364 11.9361C8.58013 11.9498 8.52828 11.9683 8.4906 11.9817C8.47498 11.9873 8.46179 11.992 8.45174 11.9951C8.41436 12.0067 8.38195 12.0123 8.32763 12.0038C8.26813 11.9945 8.18154 11.968 8.0388 11.9079C7.91662 11.8563 7.77682 11.802 7.62975 11.7449C7.60056 11.7336 7.57108 11.7222 7.5414 11.7106C7.36135 11.6405 7.17244 11.5658 6.98825 11.4849C6.61666 11.3219 6.27712 11.1392 6.07126 10.9299C5.65157 10.5031 5.40519 9.84074 5.26594 9.11641C5.12718 8.39466 5.09741 7.62595 5.09996 7.0004C5.10251 6.37324 5.1307 5.85725 5.26497 5.3896C5.39832 4.92509 5.63779 4.50376 6.07068 4.07069C6.50356 3.63765 6.92499 3.39819 7.3896 3.26488C7.85736 3.13065 8.37344 3.10255 9.00037 3.1C9.62567 3.09745 10.3945 3.12713 11.1163 3.26585C11.8408 3.40506 12.5033 3.65144 12.9298 4.07127Z" fill="white" stroke="white" stroke-width="0.2"/>
</g>
</g>
</svg>
